<svg xmlns="http://www.w3.org/2000/svg" viewBox="0 0 512 512" role="img" aria-label="Student Command icon">
  <defs>
    <linearGradient id="bg" x1="78" y1="28" x2="432" y2="486" gradientUnits="userSpaceOnUse">
      <stop stop-color="#1958f2"/>
      <stop offset="1" stop-color="#061d75"/>
    </linearGradient>
    <linearGradient id="mint" x1="176" y1="128" x2="370" y2="398" gradientUnits="userSpaceOnUse">
      <stop stop-color="#55e6c2"/>
      <stop offset="1" stop-color="#148b74"/>
    </linearGradient>
  </defs>
  <rect width="512" height="512" rx="92" fill="url(#bg)"/>
  <path d="M150 128h172c39 0 70 31 70 70v164c0 26-21 47-47 47H150c-26 0-47-21-47-47V175c0-26 21-47 47-47z" fill="#f8fbff"/>
  <path d="M138 196h94M138 258h94M138 320h70" stroke="#1745c5" stroke-width="22" stroke-linecap="round"/>
  <rect x="269" y="184" width="75" height="75" rx="18" fill="#e8eefb"/>
  <rect x="269" y="284" width="75" height="75" rx="18" fill="url(#mint)"/>
  <path d="m132 256 30 30 64-78" fill="none" stroke="#25c9a9" stroke-width="27" stroke-linecap="round" stroke-linejoin="round"/>
  <circle cx="342" cy="345" r="92" fill="#f8fbff"/>
  <circle cx="342" cy="345" r="65" fill="#0a2d91"/>
  <path d="m300 401 43-118 44 77z" fill="url(#mint)"/>
  <path d="m300 401 43-118-7 86z" fill="#f8fbff"/>
  <circle cx="343" cy="345" r="13" fill="#f8fbff"/>
  <path d="M427 329h36M342 224v36M342 430v36" stroke="#f3b638" stroke-width="18" stroke-linecap="round"/>
</svg>
